<mxfile host="app.diagrams.net" modified="2024-05-14T19:16:30.231Z" agent="Mozilla/5.0 (Windows NT 10.0; Win64; x64) AppleWebKit/537.36 (KHTML, like Gecko) Chrome/124.0.0.0 Safari/537.36" etag="VpEgo88uk_C8nqkPS3Ak" version="24.4.0" type="github">
  <diagram name="Page-1" id="TiZL8EeqKkTiTYkFXT37">
    <mxGraphModel dx="880" dy="506" grid="1" gridSize="10" guides="1" tooltips="1" connect="1" arrows="1" fold="1" page="1" pageScale="1" pageWidth="850" pageHeight="1100" math="0" shadow="0">
      <root>
        <mxCell id="0" />
        <mxCell id="1" parent="0" />
        <mxCell id="ooahMwh5GAUUV9T35n35-36" value="" style="endArrow=open;endFill=1;endSize=12;html=1;rounded=0;exitX=0.5;exitY=0;exitDx=0;exitDy=0;entryX=0.729;entryY=1;entryDx=0;entryDy=0;entryPerimeter=0;" parent="1" source="ooahMwh5GAUUV9T35n35-20" target="ooahMwh5GAUUV9T35n35-15" edge="1">
          <mxGeometry width="160" relative="1" as="geometry">
            <mxPoint x="418" y="337" as="sourcePoint" />
            <mxPoint x="420" y="270" as="targetPoint" />
          </mxGeometry>
        </mxCell>
        <mxCell id="ooahMwh5GAUUV9T35n35-35" value="" style="endArrow=open;endFill=1;endSize=12;html=1;rounded=0;exitX=0.75;exitY=0;exitDx=0;exitDy=0;entryX=0.443;entryY=1.115;entryDx=0;entryDy=0;entryPerimeter=0;" parent="1" source="ooahMwh5GAUUV9T35n35-19" target="ooahMwh5GAUUV9T35n35-15" edge="1">
          <mxGeometry width="160" relative="1" as="geometry">
            <mxPoint x="285" y="340" as="sourcePoint" />
            <mxPoint x="410" y="260" as="targetPoint" />
          </mxGeometry>
        </mxCell>
        <mxCell id="ooahMwh5GAUUV9T35n35-34" value="" style="endArrow=open;endFill=1;endSize=12;html=1;rounded=0;entryX=0.321;entryY=1.115;entryDx=0;entryDy=0;exitX=0.5;exitY=0;exitDx=0;exitDy=0;entryPerimeter=0;" parent="1" source="ooahMwh5GAUUV9T35n35-18" target="ooahMwh5GAUUV9T35n35-15" edge="1">
          <mxGeometry width="160" relative="1" as="geometry">
            <mxPoint x="129" y="353" as="sourcePoint" />
            <mxPoint x="128" y="280" as="targetPoint" />
          </mxGeometry>
        </mxCell>
        <mxCell id="ooahMwh5GAUUV9T35n35-32" value="" style="endArrow=open;endFill=1;endSize=12;html=1;rounded=0;entryX=0.007;entryY=1;entryDx=0;entryDy=0;exitX=0.75;exitY=0;exitDx=0;exitDy=0;entryPerimeter=0;" parent="1" source="ooahMwh5GAUUV9T35n35-17" target="ooahMwh5GAUUV9T35n35-15" edge="1">
          <mxGeometry width="160" relative="1" as="geometry">
            <mxPoint x="108" y="320" as="sourcePoint" />
            <mxPoint x="425" y="390" as="targetPoint" />
          </mxGeometry>
        </mxCell>
        <mxCell id="ooahMwh5GAUUV9T35n35-1" value="«interface»&lt;br&gt;&lt;b&gt;IElectric&lt;/b&gt;" style="html=1;whiteSpace=wrap;" parent="1" vertex="1">
          <mxGeometry x="210" y="210" width="110" height="50" as="geometry" />
        </mxCell>
        <mxCell id="ooahMwh5GAUUV9T35n35-2" value="«interface»&lt;br&gt;&lt;b&gt;IDiesel&lt;/b&gt;" style="html=1;whiteSpace=wrap;" parent="1" vertex="1">
          <mxGeometry x="350" y="210" width="110" height="50" as="geometry" />
        </mxCell>
        <mxCell id="ooahMwh5GAUUV9T35n35-3" value="«interface»&lt;br&gt;&lt;b&gt;IGPL&lt;/b&gt;" style="html=1;whiteSpace=wrap;" parent="1" vertex="1">
          <mxGeometry x="490" y="210" width="110" height="50" as="geometry" />
        </mxCell>
        <mxCell id="ooahMwh5GAUUV9T35n35-4" value="«interface»&lt;br&gt;&lt;b&gt;IGasoline&lt;/b&gt;" style="html=1;whiteSpace=wrap;" parent="1" vertex="1">
          <mxGeometry x="80" y="210" width="110" height="50" as="geometry" />
        </mxCell>
        <mxCell id="ooahMwh5GAUUV9T35n35-9" value="ClassFuelStation" style="swimlane;fontStyle=0;childLayout=stackLayout;horizontal=1;startSize=26;fillColor=none;horizontalStack=0;resizeParent=1;resizeParentMax=0;resizeLast=0;collapsible=1;marginBottom=0;whiteSpace=wrap;html=1;" parent="1" vertex="1">
          <mxGeometry x="130" y="20" width="170" height="130" as="geometry" />
        </mxCell>
        <mxCell id="ooahMwh5GAUUV9T35n35-10" value="+ Pump Gasoline" style="text;strokeColor=none;fillColor=none;align=left;verticalAlign=top;spacingLeft=4;spacingRight=4;overflow=hidden;rotatable=0;points=[[0,0.5],[1,0.5]];portConstraint=eastwest;whiteSpace=wrap;html=1;" parent="ooahMwh5GAUUV9T35n35-9" vertex="1">
          <mxGeometry y="26" width="170" height="26" as="geometry" />
        </mxCell>
        <mxCell id="ooahMwh5GAUUV9T35n35-11" value="+ Charge Electricity" style="text;strokeColor=none;fillColor=none;align=left;verticalAlign=top;spacingLeft=4;spacingRight=4;overflow=hidden;rotatable=0;points=[[0,0.5],[1,0.5]];portConstraint=eastwest;whiteSpace=wrap;html=1;" parent="ooahMwh5GAUUV9T35n35-9" vertex="1">
          <mxGeometry y="52" width="170" height="26" as="geometry" />
        </mxCell>
        <mxCell id="ooahMwh5GAUUV9T35n35-12" value="+ Pump Diesel" style="text;strokeColor=none;fillColor=none;align=left;verticalAlign=top;spacingLeft=4;spacingRight=4;overflow=hidden;rotatable=0;points=[[0,0.5],[1,0.5]];portConstraint=eastwest;whiteSpace=wrap;html=1;" parent="ooahMwh5GAUUV9T35n35-9" vertex="1">
          <mxGeometry y="78" width="170" height="26" as="geometry" />
        </mxCell>
        <mxCell id="ooahMwh5GAUUV9T35n35-29" value="+ Pump GPL" style="text;strokeColor=none;fillColor=none;align=left;verticalAlign=top;spacingLeft=4;spacingRight=4;overflow=hidden;rotatable=0;points=[[0,0.5],[1,0.5]];portConstraint=eastwest;whiteSpace=wrap;html=1;" parent="ooahMwh5GAUUV9T35n35-9" vertex="1">
          <mxGeometry y="104" width="170" height="26" as="geometry" />
        </mxCell>
        <mxCell id="ooahMwh5GAUUV9T35n35-13" value="ClassVehicle" style="swimlane;fontStyle=0;childLayout=stackLayout;horizontal=1;startSize=26;fillColor=none;horizontalStack=0;resizeParent=1;resizeParentMax=0;resizeLast=0;collapsible=1;marginBottom=0;whiteSpace=wrap;html=1;" parent="1" vertex="1">
          <mxGeometry x="380" y="20" width="140" height="78" as="geometry" />
        </mxCell>
        <mxCell id="ooahMwh5GAUUV9T35n35-14" value="+ Guid Id" style="text;strokeColor=none;fillColor=none;align=left;verticalAlign=top;spacingLeft=4;spacingRight=4;overflow=hidden;rotatable=0;points=[[0,0.5],[1,0.5]];portConstraint=eastwest;whiteSpace=wrap;html=1;" parent="ooahMwh5GAUUV9T35n35-13" vertex="1">
          <mxGeometry y="26" width="140" height="26" as="geometry" />
        </mxCell>
        <mxCell id="ooahMwh5GAUUV9T35n35-15" value="+ string model" style="text;strokeColor=none;fillColor=none;align=left;verticalAlign=top;spacingLeft=4;spacingRight=4;overflow=hidden;rotatable=0;points=[[0,0.5],[1,0.5]];portConstraint=eastwest;whiteSpace=wrap;html=1;" parent="ooahMwh5GAUUV9T35n35-13" vertex="1">
          <mxGeometry y="52" width="140" height="26" as="geometry" />
        </mxCell>
        <mxCell id="ooahMwh5GAUUV9T35n35-17" value="VehicleGasoline" style="html=1;whiteSpace=wrap;" parent="1" vertex="1">
          <mxGeometry x="70" y="330" width="110" height="50" as="geometry" />
        </mxCell>
        <mxCell id="ooahMwh5GAUUV9T35n35-18" value="VehicleHibrid" style="html=1;whiteSpace=wrap;" parent="1" vertex="1">
          <mxGeometry x="220" y="330" width="110" height="50" as="geometry" />
        </mxCell>
        <mxCell id="ooahMwh5GAUUV9T35n35-19" value="VehicleDiesel" style="html=1;whiteSpace=wrap;" parent="1" vertex="1">
          <mxGeometry x="360" y="330" width="110" height="50" as="geometry" />
        </mxCell>
        <mxCell id="ooahMwh5GAUUV9T35n35-20" value="VehicleGPL" style="html=1;whiteSpace=wrap;" parent="1" vertex="1">
          <mxGeometry x="500" y="330" width="110" height="50" as="geometry" />
        </mxCell>
        <mxCell id="ooahMwh5GAUUV9T35n35-21" value="ClassLorry" style="swimlane;fontStyle=0;childLayout=stackLayout;horizontal=1;startSize=26;fillColor=none;horizontalStack=0;resizeParent=1;resizeParentMax=0;resizeLast=0;collapsible=1;marginBottom=0;whiteSpace=wrap;html=1;" parent="1" vertex="1">
          <mxGeometry x="345" y="440" width="140" height="52" as="geometry" />
        </mxCell>
        <mxCell id="ooahMwh5GAUUV9T35n35-22" value="+ field: type" style="text;strokeColor=none;fillColor=none;align=left;verticalAlign=top;spacingLeft=4;spacingRight=4;overflow=hidden;rotatable=0;points=[[0,0.5],[1,0.5]];portConstraint=eastwest;whiteSpace=wrap;html=1;" parent="ooahMwh5GAUUV9T35n35-21" vertex="1">
          <mxGeometry y="26" width="140" height="26" as="geometry" />
        </mxCell>
        <mxCell id="ooahMwh5GAUUV9T35n35-25" value="ClassReservoir" style="swimlane;fontStyle=0;childLayout=stackLayout;horizontal=1;startSize=26;fillColor=none;horizontalStack=0;resizeParent=1;resizeParentMax=0;resizeLast=0;collapsible=1;marginBottom=0;whiteSpace=wrap;html=1;" parent="1" vertex="1">
          <mxGeometry x="345" y="590" width="140" height="78" as="geometry" />
        </mxCell>
        <mxCell id="ooahMwh5GAUUV9T35n35-26" value="+ Pump Gasoline" style="text;strokeColor=none;fillColor=none;align=left;verticalAlign=top;spacingLeft=4;spacingRight=4;overflow=hidden;rotatable=0;points=[[0,0.5],[1,0.5]];portConstraint=eastwest;whiteSpace=wrap;html=1;" parent="ooahMwh5GAUUV9T35n35-25" vertex="1">
          <mxGeometry y="26" width="140" height="26" as="geometry" />
        </mxCell>
        <mxCell id="ooahMwh5GAUUV9T35n35-27" value="+ Pump Diesel" style="text;strokeColor=none;fillColor=none;align=left;verticalAlign=top;spacingLeft=4;spacingRight=4;overflow=hidden;rotatable=0;points=[[0,0.5],[1,0.5]];portConstraint=eastwest;whiteSpace=wrap;html=1;" parent="ooahMwh5GAUUV9T35n35-25" vertex="1">
          <mxGeometry y="52" width="140" height="26" as="geometry" />
        </mxCell>
        <mxCell id="ooahMwh5GAUUV9T35n35-30" value="" style="endArrow=open;endFill=1;endSize=12;html=1;rounded=0;exitX=0.5;exitY=0;exitDx=0;exitDy=0;entryX=0.471;entryY=0.962;entryDx=0;entryDy=0;entryPerimeter=0;" parent="1" source="ooahMwh5GAUUV9T35n35-25" target="ooahMwh5GAUUV9T35n35-22" edge="1">
          <mxGeometry width="160" relative="1" as="geometry">
            <mxPoint x="105" y="520" as="sourcePoint" />
            <mxPoint x="415.98" y="544" as="targetPoint" />
          </mxGeometry>
        </mxCell>
        <mxCell id="ooahMwh5GAUUV9T35n35-31" value="" style="endArrow=open;endFill=1;endSize=12;html=1;rounded=0;exitX=0.5;exitY=0;exitDx=0;exitDy=0;entryX=0.5;entryY=1;entryDx=0;entryDy=0;" parent="1" source="ooahMwh5GAUUV9T35n35-21" target="ooahMwh5GAUUV9T35n35-19" edge="1">
          <mxGeometry width="160" relative="1" as="geometry">
            <mxPoint x="530" y="600" as="sourcePoint" />
            <mxPoint x="531" y="554" as="targetPoint" />
          </mxGeometry>
        </mxCell>
        <mxCell id="ooahMwh5GAUUV9T35n35-37" value="" style="endArrow=block;dashed=1;endFill=0;endSize=12;html=1;rounded=0;exitX=0.318;exitY=-0.04;exitDx=0;exitDy=0;exitPerimeter=0;entryX=0.75;entryY=1;entryDx=0;entryDy=0;" parent="1" source="ooahMwh5GAUUV9T35n35-18" target="ooahMwh5GAUUV9T35n35-4" edge="1">
          <mxGeometry width="160" relative="1" as="geometry">
            <mxPoint x="340" y="260" as="sourcePoint" />
            <mxPoint x="500" y="260" as="targetPoint" />
          </mxGeometry>
        </mxCell>
        <mxCell id="ooahMwh5GAUUV9T35n35-38" value="" style="endArrow=block;dashed=1;endFill=0;endSize=12;html=1;rounded=0;exitX=0.25;exitY=0;exitDx=0;exitDy=0;entryX=0.25;entryY=1;entryDx=0;entryDy=0;fontStyle=1" parent="1" source="ooahMwh5GAUUV9T35n35-17" target="ooahMwh5GAUUV9T35n35-4" edge="1">
          <mxGeometry width="160" relative="1" as="geometry">
            <mxPoint x="265" y="338" as="sourcePoint" />
            <mxPoint x="173" y="270" as="targetPoint" />
          </mxGeometry>
        </mxCell>
        <mxCell id="ooahMwh5GAUUV9T35n35-39" value="" style="endArrow=block;dashed=1;endFill=0;endSize=12;html=1;rounded=0;exitX=0.364;exitY=-0.04;exitDx=0;exitDy=0;entryX=0.5;entryY=1;entryDx=0;entryDy=0;fontStyle=1;exitPerimeter=0;" parent="1" source="ooahMwh5GAUUV9T35n35-18" target="ooahMwh5GAUUV9T35n35-1" edge="1">
          <mxGeometry width="160" relative="1" as="geometry">
            <mxPoint x="108" y="340" as="sourcePoint" />
            <mxPoint x="118" y="270" as="targetPoint" />
          </mxGeometry>
        </mxCell>
        <mxCell id="ooahMwh5GAUUV9T35n35-40" value="" style="endArrow=block;dashed=1;endFill=0;endSize=12;html=1;rounded=0;exitX=0.382;exitY=-0.08;exitDx=0;exitDy=0;entryX=0.445;entryY=1.06;entryDx=0;entryDy=0;fontStyle=1;exitPerimeter=0;entryPerimeter=0;" parent="1" source="ooahMwh5GAUUV9T35n35-19" target="ooahMwh5GAUUV9T35n35-2" edge="1">
          <mxGeometry width="160" relative="1" as="geometry">
            <mxPoint x="270" y="338" as="sourcePoint" />
            <mxPoint x="275" y="270" as="targetPoint" />
          </mxGeometry>
        </mxCell>
        <mxCell id="ooahMwh5GAUUV9T35n35-41" value="" style="endArrow=block;dashed=1;endFill=0;endSize=12;html=1;rounded=0;exitX=0.75;exitY=0;exitDx=0;exitDy=0;entryX=0.75;entryY=1;entryDx=0;entryDy=0;fontStyle=1;" parent="1" source="ooahMwh5GAUUV9T35n35-20" target="ooahMwh5GAUUV9T35n35-3" edge="1">
          <mxGeometry width="160" relative="1" as="geometry">
            <mxPoint x="412" y="336" as="sourcePoint" />
            <mxPoint x="409" y="273" as="targetPoint" />
          </mxGeometry>
        </mxCell>
        <mxCell id="ooahMwh5GAUUV9T35n35-42" value="" style="endArrow=open;endFill=1;endSize=12;html=1;rounded=0;exitX=0.5;exitY=0;exitDx=0;exitDy=0;entryX=1;entryY=0.5;entryDx=0;entryDy=0;" parent="1" source="ooahMwh5GAUUV9T35n35-3" target="ooahMwh5GAUUV9T35n35-29" edge="1">
          <mxGeometry width="160" relative="1" as="geometry">
            <mxPoint x="565" y="340" as="sourcePoint" />
            <mxPoint x="492" y="108" as="targetPoint" />
          </mxGeometry>
        </mxCell>
        <mxCell id="ooahMwh5GAUUV9T35n35-43" value="" style="endArrow=open;endFill=1;endSize=12;html=1;rounded=0;exitX=0.5;exitY=0;exitDx=0;exitDy=0;entryX=0.971;entryY=0.962;entryDx=0;entryDy=0;entryPerimeter=0;" parent="1" source="ooahMwh5GAUUV9T35n35-2" target="ooahMwh5GAUUV9T35n35-29" edge="1">
          <mxGeometry width="160" relative="1" as="geometry">
            <mxPoint x="555" y="220" as="sourcePoint" />
            <mxPoint x="310" y="147" as="targetPoint" />
          </mxGeometry>
        </mxCell>
        <mxCell id="ooahMwh5GAUUV9T35n35-44" value="" style="endArrow=open;endFill=1;endSize=12;html=1;rounded=0;exitX=0.25;exitY=0;exitDx=0;exitDy=0;entryX=0.641;entryY=1.038;entryDx=0;entryDy=0;entryPerimeter=0;" parent="1" source="ooahMwh5GAUUV9T35n35-1" target="ooahMwh5GAUUV9T35n35-29" edge="1">
          <mxGeometry width="160" relative="1" as="geometry">
            <mxPoint x="415" y="220" as="sourcePoint" />
            <mxPoint x="305" y="159" as="targetPoint" />
          </mxGeometry>
        </mxCell>
        <mxCell id="ooahMwh5GAUUV9T35n35-45" value="" style="endArrow=open;endFill=1;endSize=12;html=1;rounded=0;exitX=0.5;exitY=0;exitDx=0;exitDy=0;entryX=0.271;entryY=1.077;entryDx=0;entryDy=0;entryPerimeter=0;" parent="1" source="ooahMwh5GAUUV9T35n35-4" target="ooahMwh5GAUUV9T35n35-29" edge="1">
          <mxGeometry width="160" relative="1" as="geometry">
            <mxPoint x="248" y="220" as="sourcePoint" />
            <mxPoint x="249" y="161" as="targetPoint" />
          </mxGeometry>
        </mxCell>
      </root>
    </mxGraphModel>
  </diagram>
</mxfile>
